<svg width="32" height="24" viewBox="0 0 32 24" fill="none" xmlns="http://www.w3.org/2000/svg">
<path d="M19.05 3.90472L9.305 0.205485C8.47 -0.108266 7.545 -0.0627218 6.75 0.342119L4.455 1.50098C3.9 1.78436 3.86 2.56874 4.38 2.9078L11.725 7.68998L6.8 10.2354L3.89 8.92474C3.455 8.72738 2.95 8.7375 2.525 8.95511L0.915 9.76985C0.45 10.0077 0.325 10.62 0.665 11.0198L4.32 15.3364C4.625 15.6957 5.07 15.9032 5.535 15.9032H12.42C12.67 15.9032 12.915 15.8425 13.135 15.7311L26.78 8.82859C29.105 7.64949 30.905 5.62529 31.82 3.16082C32.295 1.88557 31.36 0.519237 30.01 0.519237H27.14C26.13 0.519237 25.13 0.762141 24.23 1.22771L19.05 3.90472ZM0 22.3806C0 23.2763 0.715 24 1.6 24H30.4C31.285 24 32 23.2763 32 22.3806C32 21.4849 31.285 20.7613 30.4 20.7613H1.6C0.715 20.7613 0 21.4849 0 22.3806Z" fill="black"/>
</svg>
